<?xml version="1.0" encoding="utf-8"?>
<!-- Generator: Adobe Illustrator 19.0.0, SVG Export Plug-In . SVG Version: 6.00 Build 0)  -->
<svg version="1.1" id="Calque_1" xmlns="http://www.w3.org/2000/svg" xmlns:xlink="http://www.w3.org/1999/xlink" x="0px" y="0px"
	 viewBox="0 0 28 28" style="enable-background:new 0 0 28 28;" xml:space="preserve">
<style type="text/css">
	.st0{fill:#EDEDED;}
</style>
<g id="XMLID_207_">
	<g id="XMLID_224_">
		<path id="XMLID_196_" class="st0" d="M14,19.5c-3,0-5.5-2.5-5.5-5.5S11,8.5,14,8.5s5.5,2.5,5.5,5.5S17,19.5,14,19.5z M14,9.7
			c-2.4,0-4.3,1.9-4.3,4.3s1.9,4.3,4.3,4.3s4.3-1.9,4.3-4.3S16.4,9.7,14,9.7z"/>
	</g>
	<g id="XMLID_222_">
		<path id="XMLID_205_" class="st0" d="M14,7.4c-0.4,0-0.7-0.3-0.7-0.7V2.6c0-0.4,0.3-0.7,0.7-0.7s0.7,0.3,0.7,0.7v4.1
			C14.7,7.1,14.4,7.4,14,7.4z"/>
	</g>
	<g id="XMLID_220_">
		<path id="XMLID_204_" class="st0" d="M8.8,9.5c-0.2,0-0.4-0.1-0.5-0.2L5.5,6.5c-0.3-0.3-0.3-0.7,0-1c0.3-0.3,0.7-0.3,1,0l2.9,2.9
			c0.3,0.3,0.3,0.7,0,1C9.2,9.5,9,9.5,8.8,9.5L8.8,9.5z"/>
	</g>
	<g id="XMLID_218_">
		<path id="XMLID_203_" class="st0" d="M6.7,14.7H2.6c-0.4,0-0.7-0.3-0.7-0.7c0-0.4,0.3-0.7,0.7-0.7h4.1c0.4,0,0.7,0.3,0.7,0.7
			C7.4,14.4,7.1,14.7,6.7,14.7z"/>
	</g>
	<g id="XMLID_216_">
		<path id="XMLID_202_" class="st0" d="M6,22.7c-0.2,0-0.4-0.1-0.5-0.2c-0.3-0.3-0.3-0.7,0-1l2.9-2.9c0.3-0.3,0.7-0.3,1,0
			c0.3,0.3,0.3,0.7,0,1l-2.9,2.9C6.3,22.7,6.1,22.7,6,22.7L6,22.7z"/>
	</g>
	<g id="XMLID_214_">
		<path id="XMLID_201_" class="st0" d="M14,26.1c-0.4,0-0.7-0.3-0.7-0.7v-4.1c0-0.4,0.3-0.7,0.7-0.7s0.7,0.3,0.7,0.7v4.1
			C14.7,25.8,14.4,26.1,14,26.1z"/>
	</g>
	<g id="XMLID_212_">
		<path id="XMLID_200_" class="st0" d="M22,22.7c-0.2,0-0.4-0.1-0.5-0.2l-2.9-2.9c-0.3-0.3-0.3-0.7,0-1c0.3-0.3,0.7-0.3,1,0l2.9,2.9
			c0.3,0.3,0.3,0.7,0,1C22.4,22.7,22.2,22.7,22,22.7L22,22.7z"/>
	</g>
	<g id="XMLID_210_">
		<path id="XMLID_199_" class="st0" d="M25.4,14.7h-4.1c-0.4,0-0.7-0.3-0.7-0.7c0-0.4,0.3-0.7,0.7-0.7h4.1c0.4,0,0.7,0.3,0.7,0.7
			C26.1,14.4,25.8,14.7,25.4,14.7z"/>
	</g>
	<g id="XMLID_208_">
		<path id="XMLID_195_" class="st0" d="M19.2,9.5c-0.2,0-0.4-0.1-0.5-0.2c-0.3-0.3-0.3-0.7,0-1l2.9-2.9c0.3-0.3,0.7-0.3,1,0
			s0.3,0.7,0,1l-2.9,2.9C19.5,9.5,19.3,9.5,19.2,9.5L19.2,9.5z"/>
	</g>
</g>
</svg>
